# Blender v2.71 (sub 0) OBJ File: 'PlayingCard.blend'
# www.blender.org
mtllib 5_of_spades.mtl
o Cube
v 0.315000 0.005327 -0.225000
v 0.350000 0.005327 -0.202500
v 0.315000 0.005227 -0.202500
v 0.315000 0.005227 0.202500
v 0.350000 0.005327 0.202500
v 0.315000 0.005327 0.225000
v -0.315000 0.005227 0.202500
v -0.315000 0.005327 0.225000
v -0.350000 0.005327 0.202500
v -0.350000 0.005327 -0.202500
v -0.315000 0.005327 -0.225000
v -0.315000 0.005227 -0.202500
v 0.350000 0.007127 -0.202500
v 0.315000 0.007127 -0.225000
v 0.315000 0.007227 -0.202500
v 0.315000 0.007227 0.202500
v 0.315000 0.007127 0.225000
v 0.350000 0.007127 0.202500
v -0.315000 0.007227 0.202500
v -0.350000 0.007127 0.202500
v -0.315000 0.007127 0.225000
v -0.315000 0.007127 -0.225000
v -0.350000 0.007127 -0.202500
v -0.315000 0.007227 -0.202500
vt 0.671606 0.697312
vt 0.367308 0.419435
vt 0.390866 0.359264
vt 0.672446 0.084096
vt 0.297568 0.383695
vt 0.015988 0.658863
vt 0.016828 0.045647
vt 0.321126 0.323524
vt 0.330265 0.316860
vt 0.045314 0.018610
vt 0.644476 0.053256
vt 0.383924 0.348984
vt 0.358169 0.426098
vt 0.643121 0.724349
vt 0.043958 0.689703
vt 0.304510 0.393975
vt 0.366210 0.427907
vt 0.350613 0.409126
vt 0.391965 0.350792
vt 0.374508 0.365437
vt 0.671348 0.726251
vt 0.653892 0.740895
vt 0.672704 0.055157
vt 0.688300 0.073938
vt 0.313926 0.377522
vt 0.347398 0.409552
vt 0.337821 0.333833
vt 0.313422 0.373537
vt 0.341036 0.333406
vt 0.688300 0.707621
vt 0.950000 0.050000
vt 0.950000 0.950000
vt 0.050000 0.950000
vt 0.050000 0.050000
vt 0.000000 0.050000
vt 0.050000 0.000000
vt 0.050000 1.000000
vt 0.000000 0.950000
vt 0.950000 0.000000
vt 0.950000 1.000000
vt 0.050090 0.948660
vt 0.050090 0.998595
vt 0.000100 0.948605
vt 0.050090 0.050034
vt 0.000100 0.050021
vt 0.050090 0.000100
vt 0.949910 0.949854
vt 0.949910 0.050077
vt 0.999900 0.050090
vt 0.999900 0.949910
vn 0.000000 0.000000 -1.000000
vn -0.000000 -0.000000 1.000000
vn -1.000000 -0.000000 -0.000000
vn 1.000000 0.000000 0.000000
vn 0.002900 -1.000000 -0.004400
vn -0.002900 -1.000000 -0.004400
vn 0.002900 1.000000 -0.004400
vn -0.002900 1.000000 -0.004400
vn 0.002900 -1.000000 0.000000
vn 0.540800 -0.000000 -0.841200
vn -0.000000 -1.000000 0.004400
vn 0.540800 -0.000000 0.841200
vn -0.002900 -1.000000 -0.000000
vn -0.540800 -0.000000 0.841200
vn -0.540800 0.000000 -0.841200
vn 0.000000 1.000000 -0.004400
vn 0.000000 1.000000 0.000000
vn 0.002900 1.000000 0.004400
vn -0.002900 1.000000 0.004400
vn 0.002900 1.000000 0.000000
vn -0.000000 1.000000 0.004400
vn -0.002900 1.000000 -0.000000
vn 0.002900 -1.000000 0.004400
vn -0.002900 -1.000000 0.004400
vn 0.000000 -1.000000 -0.004400
vn 0.000000 -1.000000 -0.000000
usemtl Material
s off
f 14/1/1 1/2/1 11/3/1 22/4/1
f 6/5/2 17/6/2 21/7/2 8/8/2
f 9/9/3 20/10/3 23/11/3 10/12/3
f 2/13/4 13/14/4 18/15/4 5/16/4
f 1/2/5 2/17/5 3/18/5
f 10/12/6 11/19/6 12/20/6
f 13/14/7 14/21/7 15/22/7
f 22/4/8 23/23/8 24/24/8
f 2/13/9 5/16/9 4/25/9 3/26/9
f 1/2/10 14/1/10 13/14/10 2/13/10
f 6/5/11 8/8/11 7/27/11 4/28/11
f 5/16/12 18/15/12 17/6/12 6/5/12
f 9/9/13 10/12/13 12/20/13 7/29/13
f 8/8/14 21/7/14 20/10/14 9/9/14
f 10/12/15 23/11/15 22/4/15 11/3/15
f 14/1/16 22/4/16 24/24/16 15/30/16
usemtl Material_Back
f 15/31/17 24/32/17 19/33/17 16/34/17
f 16/34/18 17/35/18 18/36/18
f 19/33/19 20/37/19 21/38/19
f 15/31/20 16/34/20 18/36/20 13/39/20
f 16/34/21 19/33/21 21/38/21 17/35/21
f 19/33/22 24/32/22 23/40/22 20/37/22
usemtl Material_Front
f 4/41/23 5/42/23 6/43/23
f 7/44/24 8/45/24 9/46/24
f 3/47/25 12/48/25 11/49/25 1/50/25
f 3/47/26 4/41/26 7/44/26 12/48/26
