# Blender v2.71 (sub 0) OBJ File: 'PlayingCard.blend'
# www.blender.org
mtllib ace_hearts.mtl
o Card_Cube
v 0.350000 0.005227 -0.225000
v 0.350000 0.005227 0.225000
v -0.350000 0.005227 0.225000
v -0.350000 0.005227 -0.225000
v 0.350000 0.007227 -0.225000
v 0.350000 0.007227 0.225000
v -0.350000 0.007227 0.225000
v -0.350000 0.007227 -0.225000
v 0.350000 0.005227 -0.225000
v 0.350000 0.005227 0.225000
v -0.350000 0.005227 0.225000
v -0.350000 0.005227 -0.225000
v 0.350000 0.007227 -0.225000
v 0.350000 0.007227 0.225000
v -0.350000 0.007227 0.225000
v -0.350000 0.007227 -0.225000
v 0.350000 0.005227 -0.225000
v 0.350000 0.005227 0.225000
v -0.350000 0.005227 0.225000
v -0.350000 0.005227 -0.225000
v 0.350000 0.007227 -0.225000
v 0.350000 0.007227 0.225000
v -0.350000 0.007227 0.225000
v -0.350000 0.007227 -0.225000
v 0.350000 0.005227 -0.225000
v 0.350000 0.005227 0.225000
v -0.350000 0.005227 0.225000
v -0.350000 0.005227 -0.225000
v 0.350000 0.007227 -0.225000
v 0.350000 0.007227 0.225000
v -0.350000 0.007227 0.225000
v -0.350000 0.007227 -0.225000
v 0.350000 0.005227 -0.225000
v 0.350000 0.005227 0.225000
v -0.350000 0.005227 0.225000
v -0.350000 0.005227 -0.225000
v 0.350000 0.007227 -0.225000
v 0.350000 0.007227 0.225000
v -0.350000 0.007227 0.225000
v -0.350000 0.007227 -0.225000
v 0.350000 0.005227 -0.225000
v 0.350000 0.005227 0.225000
v -0.350000 0.005227 0.225000
v -0.350000 0.005227 -0.225000
v 0.350000 0.007227 -0.225000
v 0.350000 0.007227 0.225000
v -0.350000 0.007227 0.225000
v -0.350000 0.007227 -0.225000
vt 0.928572 0.998526
vt 0.928571 0.750000
vt 0.999900 0.750000
vt 1.000000 1.000000
vt 0.000000 1.000000
vt -0.000143 0.000000
vt 0.349258 0.411332
vt 0.688301 0.742825
vt 0.000134 0.704225
vt 0.312066 0.375742
vt 0.000134 0.000134
vt 0.688300 0.038733
vt 0.376368 0.367216
vt 0.988000 0.575069
vt 0.857143 0.000000
vt 0.928571 0.000000
vt 0.928571 0.250000
vt 1.001714 0.999311
vt 1.000000 0.000000
vt 0.339177 0.331627
vt 1.001714 1.021350
vt 1.184572 1.076446
vt 1.065714 1.274793
vt 0.857143 0.250000
vn 0.000000 -1.000000 0.000000
vn 0.000000 1.000000 -0.000000
vn 1.000000 -0.000100 0.000000
vn -0.000000 -0.000100 1.000000
vn -1.000000 -0.000000 -0.000000
vn 0.000000 0.000100 -1.000000
vn 1.000000 0.000100 0.000000
vn -0.000000 0.000000 1.000000
vn -1.000000 -0.000100 -0.000000
vn 0.000000 0.000000 -1.000000
usemtl Material
s off
f 2/1/1 3/2/1 4/3/1
usemtl Material_Back
f 8/4/2 7/5/2 6/6/2
usemtl Material_NONE
f 1/7/3 5/8/3 6/9/3
f 2/10/4 6/9/4 7/11/4
f 7/11/5 8/12/5 4/13/5
f 5/8/6 1/7/6 4/13/6
usemtl Material
f 10/1/1 11/2/1 12/3/1
usemtl Material_Back
f 16/4/2 15/5/2 14/6/2
usemtl Material_NONE
f 9/7/3 13/8/3 14/9/3
f 10/10/4 14/9/4 15/11/4
f 15/11/5 16/12/5 12/13/5
f 13/8/6 9/7/6 12/13/6
usemtl Material
f 18/1/1 19/2/1 20/3/1
usemtl Material_Back
f 24/4/2 23/5/2 22/6/2
usemtl Material_NONE
f 17/14/3 21/8/3 22/9/3
f 18/10/4 22/9/4 23/11/4
f 23/11/5 24/12/5 20/13/5
f 21/8/6 17/7/6 20/13/6
usemtl Material
f 26/1/1 27/2/1 28/3/1
usemtl Material_Back
f 32/4/2 31/5/2 30/6/2
usemtl Material_NONE
f 25/7/3 29/8/3 30/9/3
f 26/10/4 30/9/4 31/11/4
f 31/11/5 32/12/5 28/13/5
f 29/8/6 25/7/6 28/13/6
usemtl Material
f 34/1/1 35/2/1 36/3/1
usemtl Material_Back
f 40/4/2 39/5/2 38/6/2
usemtl Material_NONE
f 33/7/3 37/8/3 38/9/3
f 34/10/4 38/9/4 39/11/4
f 39/11/5 40/12/5 36/13/5
f 37/8/6 33/7/6 36/13/6
usemtl Material
f 42/1/1 43/2/1 44/3/1
<<<<<<< HEAD
usemtl Material_all_cards.png
f 48/15/2 47/16/2 46/17/2
=======
f 48/15/2 47/16/2 46/17/2
usemtl Material_NONE
>>>>>>> 0f3f402201e5f3f51f1ab57d87c9fdf03039c12a
f 41/7/3 45/8/3 46/9/3
f 42/10/4 46/9/4 47/11/4
f 47/11/5 48/12/5 44/13/5
f 45/8/6 41/7/6 44/13/6
usemtl Material
f 1/18/1 2/1/1 4/3/1
usemtl Material_Back
f 5/19/2 8/4/2 6/6/2
usemtl Material_NONE
f 2/10/7 1/7/7 6/9/7
f 3/20/8 2/10/8 7/11/8
f 3/20/9 7/11/9 4/13/9
f 8/12/10 5/8/10 4/13/10
usemtl Material
f 9/21/1 10/1/1 12/3/1
usemtl Material_Back
f 13/19/2 16/4/2 14/6/2
usemtl Material_NONE
f 10/10/7 9/7/7 14/9/7
f 11/20/8 10/10/8 15/11/8
f 11/20/9 15/11/9 12/13/9
f 16/12/10 13/8/10 12/13/10
usemtl Material
f 17/4/1 18/1/1 20/3/1
usemtl Material_Back
f 21/19/2 24/4/2 22/6/2
usemtl Material_NONE
f 18/10/7 17/14/7 22/9/7
f 19/20/8 18/10/8 23/11/8
f 19/20/9 23/11/9 20/13/9
f 24/12/10 21/8/10 20/13/10
usemtl Material
f 25/22/1 26/1/1 28/3/1
usemtl Material_Back
f 29/19/2 32/4/2 30/6/2
usemtl Material_NONE
f 26/10/7 25/7/7 30/9/7
f 27/20/8 26/10/8 31/11/8
f 27/20/9 31/11/9 28/13/9
f 32/12/10 29/8/10 28/13/10
usemtl Material
f 33/23/1 34/1/1 36/3/1
usemtl Material_Back
f 37/19/2 40/4/2 38/6/2
usemtl Material_NONE
f 34/10/7 33/7/7 38/9/7
f 35/20/8 34/10/8 39/11/8
f 35/20/9 39/11/9 36/13/9
f 40/12/10 37/8/10 36/13/10
usemtl Material
f 41/4/1 42/1/1 44/3/1
<<<<<<< HEAD
usemtl Material_all_cards.png
f 45/24/2 48/15/2 46/17/2
=======
f 45/24/2 48/15/2 46/17/2
usemtl Material_NONE
>>>>>>> 0f3f402201e5f3f51f1ab57d87c9fdf03039c12a
f 42/10/7 41/7/7 46/9/7
f 43/20/8 42/10/8 47/11/8
f 43/20/9 47/11/9 44/13/9
f 48/12/10 45/8/10 44/13/10
